<svg width="30" height="30" viewBox="0 0 30 30" fill="none" xmlns="http://www.w3.org/2000/svg">
<path d="M17.3686 7.08068L17.4639 7.11095L17.3686 7.08068L15.2203 13.8467H10.5289C10.5192 13.8388 10.5093 13.8308 10.4994 13.8229L9.11806 10.7038C9.42129 10.5458 9.62759 10.2201 9.62759 9.84585C9.62759 9.32029 9.2199 8.88612 8.70727 8.88612H5.60124C5.08861 8.88612 4.68093 9.32029 4.68093 9.84585C4.68093 10.3714 5.08861 10.8056 5.60124 10.8056H7.13577L7.95384 12.6528C7.60861 12.5877 7.25324 12.5534 6.89034 12.5534C3.58279 12.5534 0.9 15.372 0.9 18.8267C0.9 22.2815 3.58279 25.1 6.89034 25.1C9.88552 25.1 12.3682 22.7881 12.8102 19.7864H14.6087C15.008 19.7864 15.3584 19.5188 15.4823 19.1284L15.387 19.0982L15.4823 19.1284L18.4578 9.75709C18.7036 11.0416 19.0826 12.3744 19.5939 13.7504C18.0947 14.8921 17.1193 16.7429 17.1193 18.8267C17.1193 22.2815 19.8021 25.1 23.1096 25.1C26.4172 25.1001 29.1 22.2815 29.1 18.8267C29.1 15.372 26.4172 12.5534 23.1097 12.5534C22.4591 12.5534 21.8326 12.6629 21.2456 12.8646C20.3943 10.5152 19.7384 7.68887 20.0308 4.96652C20.0598 4.69662 19.9777 4.42578 19.8039 4.22191C19.6298 4.01784 19.3799 3.9 19.1162 3.9H16.3791C15.8664 3.9 15.4587 4.33417 15.4587 4.85973C15.4587 5.38528 15.8664 5.81945 16.3791 5.81945H16.7934H17.769L17.3686 7.08068ZM6.89034 19.7864H10.9377C10.5193 21.73 8.86082 23.1805 6.89034 23.1805C4.60663 23.1806 2.74063 21.2318 2.74063 18.8267C2.74063 16.4216 4.60663 14.4728 6.89034 14.4728C8.86082 14.4728 10.5193 15.9234 10.9377 17.867H6.89034C6.37771 17.867 5.97002 18.3012 5.97002 18.8267C5.97002 19.3523 6.37771 19.7864 6.89034 19.7864ZM14.6109 15.7661L13.9439 17.867H12.8102C12.6994 17.1146 12.4607 16.4059 12.1178 15.7661H14.6109ZM22.351 19.3701L22.4345 19.3151L23.785 18.3387L23.8686 18.2838C23.8686 18.2838 23.8686 18.2838 23.8686 18.2838C23.8495 18.2547 22.9116 16.8092 21.9594 14.6436C22.3248 14.5327 22.7107 14.4729 23.1097 14.4729C25.3934 14.4729 27.2594 16.4216 27.2594 18.8268C27.2594 21.2319 25.3934 23.1806 23.1097 23.1806C20.826 23.1806 18.96 21.2319 18.96 18.8267C18.96 17.5397 19.4954 16.3826 20.3433 15.5852C21.3425 17.8288 22.3043 19.2991 22.351 19.3701Z" fill="white" stroke="white" stroke-width="0.2"/>
</svg>
