<svg width="31" height="32" viewBox="0 0 31 32" fill="none" xmlns="http://www.w3.org/2000/svg">
<path d="M15.5 28.8096C16.875 28.8096 18 27.6524 18 26.2382H13C13 27.6524 14.125 28.8096 15.5 28.8096ZM23 21.0953V14.6667C23 10.7196 20.9625 7.4153 17.375 6.54102V5.66673C17.375 4.59959 16.5375 3.73816 15.5 3.73816C14.4625 3.73816 13.625 4.59959 13.625 5.66673V6.54102C10.05 7.4153 8 10.7067 8 14.6667V21.0953L5.5 23.6667V24.9524H25.5V23.6667L23 21.0953ZM20.5 22.381H10.5V14.6667C10.5 11.4782 12.3875 8.88102 15.5 8.88102C18.6125 8.88102 20.5 11.4782 20.5 14.6667V22.381Z" fill="#D2D2D2"/>
</svg>
