<svg width="28" height="28" viewBox="0 0 28 28" fill="none" xmlns="http://www.w3.org/2000/svg">
<path d="M5.83398 10.5L8.16732 10.5L5.83398 10.5ZM12.834 10.5L15.1673 10.5L12.834 10.5ZM19.834 10.5L22.1673 10.5L19.834 10.5ZM5.83398 22.1667C5.83398 22.7855 6.07982 23.379 6.5174 23.8166C6.95499 24.2542 7.54848 24.5 8.16732 24.5L11.6673 24.5C11.6673 23.8812 11.9132 23.2877 12.3507 22.8501C12.7883 22.4125 13.3818 22.1667 14.0007 22.1667C14.6195 22.1667 15.213 22.4125 15.6506 22.8501C16.0882 23.2877 16.334 23.8812 16.334 24.5L19.834 24.5C20.4528 24.5 21.0463 24.2542 21.4839 23.8166C21.9215 23.379 22.1673 22.7855 22.1673 22.1667L22.1673 5.83334C22.1673 5.2145 21.9215 4.621 21.4839 4.18342C21.0463 3.74584 20.4528 3.5 19.834 3.5L16.334 3.5C16.334 4.11884 16.0882 4.71233 15.6506 5.14992C15.213 5.5875 14.6195 5.83334 14.0007 5.83334C13.3818 5.83334 12.7883 5.5875 12.3507 5.14992C11.9132 4.71233 11.6673 4.11884 11.6673 3.5L8.16732 3.5C7.54848 3.5 6.95499 3.74584 6.5174 4.18342C6.07982 4.62101 5.83398 5.2145 5.83398 5.83334L5.83398 22.1667Z" stroke="#D2D2D2" stroke-width="2" stroke-linecap="round" stroke-linejoin="round"/>
</svg>
